<?xml version="1.0" encoding="utf-8"?>
<!-- Generator: Adobe Illustrator 18.1.1, SVG Export Plug-In . SVG Version: 6.00 Build 0)  -->
<svg version="1.1" id="Layer_1" xmlns="http://www.w3.org/2000/svg" xmlns:xlink="http://www.w3.org/1999/xlink" x="0px" y="0px"
	 viewBox="0 0 512 512" enable-background="new 0 0 512 512" xml:space="preserve">
<linearGradient id="SVGID_1_" gradientUnits="userSpaceOnUse" x1="503.6678" y1="82.8811" x2="8.3322" y2="429.7188" gradientTransform="matrix(1 0 0 -1 0 512)">
	<stop  offset="0" style="stop-color:#1299F3"/>
	<stop  offset="1" style="stop-color:#0F7DBA"/>
</linearGradient>
<path fill="url(#SVGID_1_)" d="M374,511.7H138c-76.2,0-138-61.8-138-138v-236c0-76.2,61.8-138,138-138h236c76.2,0,138,61.8,138,138
	v236C512,449.9,450.2,511.7,374,511.7z"/>
<linearGradient id="SVGID_2_" gradientUnits="userSpaceOnUse" x1="-332" y1="50" x2="-258" y2="50">
	<stop  offset="0" style="stop-color:#1299F3"/>
	<stop  offset="1" style="stop-color:#BC0D09"/>
</linearGradient>
<rect x="-332" y="13" fill="url(#SVGID_2_)" width="74" height="74"/>
<linearGradient id="SVGID_3_" gradientUnits="userSpaceOnUse" x1="-332" y1="155" x2="-258" y2="155">
	<stop  offset="0" style="stop-color:#0F7DBA"/>
	<stop  offset="1" style="stop-color:#BC0D09"/>
</linearGradient>
<rect x="-332" y="118" fill="url(#SVGID_3_)" width="74" height="74"/>
<path fill="#FFFFFF" d="M244.5,200.3c-6.4,5.4,37.9-5.9,33.4,15.9c-4.3,21-46.6-4.4-93-2.3c-20.5,0.9-39.3,6.8-51.3,21.5
	c12.5-14.3,37.3-10.9,30.9-1c-15.1,22.9-43.5,6.4-63.3,51.2c2.4-5.1,8.8-15.4,36.6-19.6c20.4-3.1,54.2-0.2,65.1,16.7
	c11.9,18.6-48.4,16.5-15,20.2c46.3,5.2,81.1,42.6,126.3,42.6c58.6,0,95.5-29.9,96-79.1C410.9,177.3,293,159.3,244.5,200.3z
	 M331.6,297.6c-15.4-0.4-30.9-6.6-43.3-12.6c-30.4-14.9-43-20-43-20.7c0-0.9,18.3,6.2,49.1-10.2c17.8-9.5,18.4-17.7,37.2-19.4
	c22.3-2,38.1,14.5,38.1,31.9C369.7,284,354,298.2,331.6,297.6z"/>
</svg>
