<svg xmlns="http://www.w3.org/2000/svg" viewBox="0 0 512 512"><linearGradient id="a" gradientUnits="userSpaceOnUse" x1="503.668" y1="82.881" x2="8.332" y2="429.719" gradientTransform="matrix(1 0 0 -1 0 512)"><stop offset="0" stop-color="#1299f3"/><stop offset="1" stop-color="#0f7dba"/></linearGradient><path fill="url(#a)" d="M374 511.7H138c-76.2 0-138-61.8-138-138v-236C0 61.5 61.8-.3 138-.3h236c76.2 0 138 61.8 138 138v236c0 76.2-61.8 138-138 138z"/><linearGradient id="b" gradientUnits="userSpaceOnUse" x1="-332" y1="50" x2="-258" y2="50"><stop offset="0" stop-color="#1299f3"/><stop offset="1" stop-color="#bc0d09"/></linearGradient><path fill="url(#b)" d="M-332 13h74v74h-74z"/><linearGradient id="c" gradientUnits="userSpaceOnUse" x1="-332" y1="155" x2="-258" y2="155"><stop offset="0" stop-color="#0f7dba"/><stop offset="1" stop-color="#bc0d09"/></linearGradient><path fill="url(#c)" d="M-332 118h74v74h-74z"/><path fill="#FFF" d="M244.5 200.3c-6.4 5.4 37.9-5.9 33.4 15.9-4.3 21-46.6-4.4-93-2.3-20.5.9-39.3 6.8-51.3 21.5 12.5-14.3 37.3-10.9 30.9-1-15.1 22.9-43.5 6.4-63.3 51.2 2.4-5.1 8.8-15.4 36.6-19.6 20.4-3.1 54.2-.2 65.1 16.7 11.9 18.6-48.4 16.5-15 20.2 46.3 5.2 81.1 42.6 126.3 42.6 58.6 0 95.5-29.9 96-79.1.7-89.1-117.2-107.1-165.7-66.1zm87.1 97.3c-15.4-.4-30.9-6.6-43.3-12.6-30.4-14.9-43-20-43-20.7 0-.9 18.3 6.2 49.1-10.2 17.8-9.5 18.4-17.7 37.2-19.4 22.3-2 38.1 14.5 38.1 31.9s-15.7 31.6-38.1 31z"/></svg>