<?xml version="1.0" ?><!DOCTYPE svg  PUBLIC '-//W3C//DTD SVG 1.1//EN'  'http://www.w3.org/Graphics/SVG/1.1/DTD/svg11.dtd'><svg enable-background="new 0 0 512 512" id="Layer_1" version="1.1" viewBox="0 0 512 512" xml:space="preserve" xmlns="http://www.w3.org/2000/svg" xmlns:xlink="http://www.w3.org/1999/xlink"><linearGradient gradientUnits="userSpaceOnUse" id="SVGID_1_" x1="503.6737" x2="8.3263" y1="429.0897" y2="82.2437"><stop offset="0" style="stop-color:#FB392A"/><stop offset="1" style="stop-color:#BC0D09"/></linearGradient><path d="M374,511.7H138c-76.2,0-138-61.8-138-138v-236c0-76.2,61.8-138,138-138h236c76.2,0,138,61.8,138,138  v236C512,449.9,450.2,511.7,374,511.7z" fill="url(#SVGID_1_)"/><polygon fill="#FFFFFF" points="193.9,244.9 237,297.5 260.4,297.5 320.6,244.9 306,329.8 351,329.8 376.3,182.2 331.4,182.2   257.3,247.4 202.8,182.2 161.6,182.2 135.7,329.8 180,329.8 "/></svg>