<svg height="512" viewBox="0 0 512.00003 512" width="512" xmlns="http://www.w3.org/2000/svg"><rect height="512" rx="64" ry="64" width="512" fill="#282828"/><path d="M426.067 205.07c0 20.366-16.57 36.88-37.01 36.88-20.46 0-37.02-16.514-37.02-36.88 0-20.363 16.563-36.875 37.02-36.875 20.44 0 37.01 16.512 37.01 36.876zm-14.91 62.308l-44.828 38.195c.484 3.05.812 6.147.812 9.325 0 32.516-26.462 58.88-59.093 58.88-28.152 0-51.66-19.618-57.614-45.867L139.63 290.46c-8.755 6.622-19.64 10.6-31.48 10.6-28.8 0-52.15-23.267-52.15-51.96 0-28.69 23.35-51.947 52.15-51.947 24.765 0 45.45 17.2 50.788 40.246l107.035 36.182c10.427-10.53 24.805-17.13 40.738-17.485l16.032-48.55c-.044-.965-.142-1.916-.142-2.89 0-36.69 29.862-66.43 66.698-66.43S456 167.962 456 204.652c0 29.067-18.76 53.707-44.844 62.725zM140.94 231.316c-6.23-11.174-18.19-18.743-31.93-18.743-20.168 0-36.52 16.29-36.52 36.378 0 20.09 16.352 36.374 36.52 36.374 3.73 0 7.32-.56 10.708-1.595l-17.35-5.863c-13.984-7.458-19.246-24.796-11.757-38.725 7.493-13.92 24.898-19.155 38.867-11.698l11.462 3.872zm196.338-26.503c0 28.498 23.19 51.6 51.8 51.6 28.61 0 51.818-23.102 51.818-51.6 0-28.51-23.21-51.613-51.818-51.613-28.61 0-51.8 23.102-51.8 51.613zm1.022 115.138c0-21.697-17.657-39.288-39.44-39.288-3.053 0-6.004.382-8.857 1.03l22.04 7.45c13.973 7.467 19.226 24.8 11.737 38.716-7.49 13.938-24.893 19.17-38.862 11.71l-23.75-8.03c4.963 16.04 19.963 27.698 37.692 27.698 21.783 0 39.44-17.596 39.44-39.285z" fill="#fff" fill-rule="evenodd"/></svg>