<svg height="512" viewBox="0 0 512 512" width="512" xmlns="http://www.w3.org/2000/svg"><g fill="#cf2200"><path d="M0 0h512v512H0z"/><path d="M130.105 250.12l120.112-120.83c30.156-30.32 79.027-30.32 109.165 0 7.218 7.6 6.88 19.897-.546 27.368-7.543 7.592-19.743 7.592-27.303 0l-1.822-2.115c-15.155-12.925-37.897-12.19-52.204 2.21l-122.81 123.524c-8.09 7.498-20.302 7.498-27.836-.08-7.542-7.578-7.542-19.875 0-27.453a19.782 19.782 0 0 1 3.245-2.622zm269.664 2.628c-7.543-7.578-19.747-7.578-27.29 0a20.535 20.535 0 0 0-2.63 3.276l-119.63 120.34c-15.074 15.154-39.515 15.154-54.586 0l-.546-.086c-7.53-7.578-19.743-7.578-27.29 0-7.528 7.565-7.528 19.876 0 27.44.965.965 1.992 1.814 3.076 2.547 30.31 27.836 77.32 27.03 106.632-2.453l122.263-123.61c7.528-7.578 7.528-19.876 0-27.454zM211.97 332.473a20.304 20.304 0 0 0-3.235 2.63c-7.543 7.57-7.543 19.877 0 27.442 7.533 7.578 19.742 7.578 27.835.093l122.81-123.548c15.076-15.155 39.516-15.155 54.574 0 15.094 15.165 15.094 39.756 0 54.912l-116.45 117.694c15.09 15.156 39.516 15.156 54.587 0l89.166-90.24c30.132-30.32 30.132-79.48 0-109.815-30.135-30.3-79.015-30.3-109.167 0l-120.12 120.833zm-16.342-11.018l122.263-123.61c7.538-7.586 7.538-19.884 0-27.45-7.53-7.585-19.756-7.585-27.29 0a18.395 18.395 0 0 0-2.617 3.268l-119.64 120.343c-15.077 15.165-39.508 15.165-54.575 0-15.088-15.155-15.088-39.747 0-54.91l116.45-117.682c-15.066-15.17-39.515-15.17-54.586 0L86.47 211.64c-30.148 30.335-30.148 79.495 0 109.815 30.146 30.33 79.035 30.33 109.16 0z"/></g><path d="M371.29 348.587h-21.957l.103-12.75c0-5.668 4.653-10.304 10.342-10.304h1.4c5.698 0 10.364 4.636 10.364 10.303l-.253 12.75zm-82.343-27.325c-5.57 0-10.125 3.742-10.125 8.325V391.6c0 4.573 4.556 8.307 10.125 8.307 5.59 0 10.15-3.734 10.15-8.307v-62.013c0-4.587-4.56-8.325-10.15-8.325zm133.72-34.69v117.975c0 28.297-24.543 51.453-54.534 51.453H143.87c-30.003 0-54.537-23.156-54.537-51.453V286.573c0-28.297 24.534-51.457 54.538-51.457h224.263c29.99 0 54.534 23.16 54.534 51.457zM158.83 417.357V293.084l27.8.01V274.68l-74.106-.11v18.1l23.134.068v124.618h23.19zm83.334-105.76h-23.177v66.36c0 9.6.582 14.4-.045 16.093-1.884 5.146-10.355 10.608-13.657.554-.56-1.76-.067-7.07-.076-16.19l-.094-66.818h-23.05l.072 65.764c0 10.08-.227 17.6.08 21.018.564 6.03.364 13.066 5.96 17.08 10.426 7.515 30.413-1.12 35.413-11.858l-.043 13.702 18.613.022V311.596zm74.147 75.99l-.048-55.23c0-21.05-15.764-33.658-37.142-16.627l.093-41.063-23.155.035-.11 141.734 19.034-.28 1.734-8.827c24.337 22.323 39.63 7.03 39.595-19.743zm72.54-7.32l-17.383.094c0 .69-.045 1.484-.045 2.35v9.7c0 5.186-4.29 9.412-9.497 9.412h-3.405c-5.218 0-9.502-4.226-9.502-9.413V366.9h39.795v-14.978c0-10.946-.28-21.888-1.186-28.146-2.845-19.796-30.63-22.938-44.667-12.805-4.41 3.165-7.773 7.4-9.73 13.094-1.977 5.693-2.954 13.47-2.954 23.35v32.93c.004 54.746 66.502 47.01 58.568-.08zM299.7 201.477c1.196 2.906 3.054 5.262 5.574 7.04 2.488 1.75 5.675 2.63 9.484 2.63 3.342 0 6.302-.902 8.88-2.764 2.57-1.853 4.733-4.622 6.498-8.315l-.436 9.093h25.836V99.29H335.2v85.51c0 4.63-3.813 8.422-8.476 8.422-4.635 0-8.462-3.79-8.462-8.422V99.29h-21.226v74.106c0 9.44.168 15.733.448 18.924a32.158 32.158 0 0 0 2.218 9.156zm-78.293-62.054c0-10.546.88-18.782 2.626-24.72 1.76-5.915 4.92-10.67 9.497-14.258 4.565-3.604 10.41-5.408 17.516-5.408 5.977 0 11.097 1.173 15.377 3.47 4.297 2.312 7.61 5.312 9.91 9.014 2.343 3.716 3.934 7.533 4.783 11.44.867 3.96 1.293 9.933 1.293 17.99v27.788c0 10.19-.41 17.69-1.2 22.45-.786 4.772-2.475 9.2-5.09 13.35-2.58 4.106-5.91 7.178-9.945 9.138-4.08 1.977-8.747 2.946-14.018 2.946-5.89 0-10.85-.813-14.938-2.51-4.102-1.69-7.27-4.236-9.53-7.62-2.28-3.385-3.883-7.51-4.852-12.32-.973-4.803-1.436-12.03-1.436-21.66v-29.09zm20.234 43.645c0 6.222 4.632 11.302 10.272 11.302 5.644 0 10.253-5.08 10.253-11.303v-58.49c0-6.213-4.61-11.293-10.254-11.293-5.64 0-10.272 5.08-10.272 11.294v58.49zM170.142 212.6h24.374l.044-84.267 28.8-72.186h-26.658l-15.31 53.617L165.86 56H139.48l30.64 72.373.044 84.227z" fill="#fff"/></svg>